HIERARCHY
ROOT hip
{
  OFFSET 0 0 0
  CHANNELS 6 Xposition Yposition Zposition Zrotation Yrotation Xrotation
  JOINT abdomen
  {
    OFFSET 0 20.6881 -0.73152
    CHANNELS 3 Zrotation Xrotation Yrotation
    JOINT chest
    {
      OFFSET 0 11.7043 -0.48768
      CHANNELS 3 Zrotation Xrotation Yrotation
      JOINT neck
      {
        OFFSET 0 22.1894 -2.19456
        CHANNELS 3 Zrotation Xrotation Yrotation
        JOINT head
        {
          OFFSET -0.24384 7.07133 1.2192
          CHANNELS 3 Zrotation Xrotation Yrotation
          JOINT leftEye
          {
            OFFSET 4.14528 8.04674 8.04672
            CHANNELS 3 Zrotation Xrotation Yrotation
            End Site
            {
              OFFSET 1 0 0
            }
          }
          JOINT rightEye
          {
            OFFSET -3.6576 8.04674 8.04672
            CHANNELS 3 Zrotation Xrotation Yrotation
            End Site
            {
              OFFSET 1 0 0
            }
          }
        }
      }
      JOINT rCollar
      {
        OFFSET -2.68224 19.2634 -4.8768
        CHANNELS 3 Zrotation Xrotation Yrotation
        JOINT rShldr
        {
          OFFSET -8.77824 -1.95073 1.46304
          CHANNELS 3 Zrotation Xrotation Yrotation
          JOINT rForeArm
          {
            OFFSET -28.1742 -1.7115 0.48768
            CHANNELS 3 Zrotation Xrotation Yrotation
            JOINT rHand
            {
              OFFSET -22.5879 0.773209 7.07136
              CHANNELS 3 Zrotation Xrotation Yrotation
              JOINT rThumb1
              {
                OFFSET -1.2192 -0.487915 3.41376
                CHANNELS 3 Zrotation Xrotation Yrotation
                JOINT rThumb2
                {
                  OFFSET -3.37035 -0.52449 3.41376
                  CHANNELS 3 Zrotation Xrotation Yrotation
                  End Site
                  {
                    OFFSET -1.78271 -1.18214 1.43049
                  }
                }
              }
              JOINT rIndex1
              {
                OFFSET -7.75947 0.938293 5.60832
                CHANNELS 3 Zrotation Xrotation Yrotation
                JOINT rIndex2
                {
                  OFFSET -2.54057 -0.884171 1.56538
                  CHANNELS 3 Zrotation Xrotation Yrotation
                  End Site
                  {
                    OFFSET -1.62519 -0.234802 1.16502
                  }
                }
              }
              JOINT rMid1
              {
                OFFSET -8.24714 1.18213 3.41376
                CHANNELS 3 Zrotation Xrotation Yrotation
                JOINT rMid2
                {
                  OFFSET -3.10165 -0.590103 1.0647
                  CHANNELS 3 Zrotation Xrotation Yrotation
                  End Site
                  {
                    OFFSET -2.48547 -0.328903 0.83742
                  }
                }
              }
              JOINT rRing1
              {
                OFFSET -8.82822 0.546677 1.51678
                CHANNELS 3 Zrotation Xrotation Yrotation
                JOINT rRing2
                {
                  OFFSET -2.60934 -0.819778 -0.0198488
                  CHANNELS 3 Zrotation Xrotation Yrotation
                  End Site
                  {
                    OFFSET -2.33842 -0.294052 0.168128
                  }
                }
              }
              JOINT rPinky1
              {
                OFFSET -8.27202 -0.0477905 -0.4584
                CHANNELS 3 Zrotation Xrotation Yrotation
                JOINT rPinky2
                {
                  OFFSET -1.82734 -0.647385 -0.700984
                  CHANNELS 3 Zrotation Xrotation Yrotation
                  End Site
                  {
                    OFFSET -1.69225 -0.51767 -0.607171
                  }
                }
              }
            }
          }
        }
      }
      JOINT lCollar
      {
        OFFSET 2.68224 19.2634 -4.8768
        CHANNELS 3 Zrotation Xrotation Yrotation
        JOINT lShldr
        {
          OFFSET 8.77824 -1.95073 1.46304
          CHANNELS 3 Zrotation Xrotation Yrotation
          JOINT lForeArm
          {
            OFFSET 28.1742 -1.7115 0.48768
            CHANNELS 3 Zrotation Xrotation Yrotation
            JOINT lHand
            {
              OFFSET 22.5879 0.773209 7.07136
              CHANNELS 3 Zrotation Xrotation Yrotation
              JOINT lThumb1
              {
                OFFSET 1.2192 -0.487915 3.41376
                CHANNELS 3 Zrotation Xrotation Yrotation
                JOINT lThumb2
                {
                  OFFSET 3.37035 -0.52449 3.41376
                  CHANNELS 3 Zrotation Xrotation Yrotation
                  End Site
                  {
                    OFFSET 1.78271 -1.18214 1.43049
                  }
                }
              }
              JOINT lIndex1
              {
                OFFSET 7.75947 0.938293 5.60832
                CHANNELS 3 Zrotation Xrotation Yrotation
                JOINT lIndex2
                {
                  OFFSET 2.54057 -0.884171 1.56538
                  CHANNELS 3 Zrotation Xrotation Yrotation
                  End Site
                  {
                    OFFSET 1.62519 -0.234802 1.16502
                  }
                }
              }
              JOINT lMid1
              {
                OFFSET 8.24714 1.18213 3.41376
                CHANNELS 3 Zrotation Xrotation Yrotation
                JOINT lMid2
                {
                  OFFSET 3.10165 -0.590103 1.0647
                  CHANNELS 3 Zrotation Xrotation Yrotation
                  End Site
                  {
                    OFFSET 2.48547 -0.328903 0.83742
                  }
                }
              }
              JOINT lRing1
              {
                OFFSET 8.82822 0.546677 1.51678
                CHANNELS 3 Zrotation Xrotation Yrotation
                JOINT lRing2
                {
                  OFFSET 2.60934 -0.819778 -0.0198488
                  CHANNELS 3 Zrotation Xrotation Yrotation
                  End Site
                  {
                    OFFSET 2.33842 -0.294052 0.168128
                  }
                }
              }
              JOINT lPinky1
              {
                OFFSET 8.27202 -0.0477905 -0.4584
                CHANNELS 3 Zrotation Xrotation Yrotation
                JOINT lPinky2
                {
                  OFFSET 1.82734 -0.647385 -0.700984
                  CHANNELS 3 Zrotation Xrotation Yrotation
                  End Site
                  {
                    OFFSET 1.69225 -0.51767 -0.607171
                  }
                }
              }
            }
          }
        }
      }
    }
  }
  JOINT rButtock
  {
    OFFSET -8.77824 4.35084 1.2192
    CHANNELS 3 Zrotation Xrotation Yrotation
    JOINT rThigh
    {
      OFFSET 0 -1.70687 -2.19456
      CHANNELS 3 Zrotation Xrotation Yrotation
      JOINT rShin
      {
        OFFSET 0 -36.8199 0.73152
        CHANNELS 3 Zrotation Xrotation Yrotation
        JOINT rFoot
        {
          OFFSET 0.73152 -45.1104 -5.12064
          CHANNELS 3 Zrotation Xrotation Yrotation
          End Site
          {
            OFFSET -1.1221 -3.69964 12.103
          }
        }
      }
    }
  }
  JOINT lButtock
  {
    OFFSET 8.77824 4.35084 1.2192
    CHANNELS 3 Zrotation Xrotation Yrotation
    JOINT lThigh
    {
      OFFSET 0 -1.70687 -2.19456
      CHANNELS 3 Zrotation Xrotation Yrotation
      JOINT lShin
      {
        OFFSET 0 -36.8199 0.73152
        CHANNELS 3 Zrotation Xrotation Yrotation
        JOINT lFoot
        {
          OFFSET -0.73152 -45.1104 -5.12064
          CHANNELS 3 Zrotation Xrotation Yrotation
          End Site
          {
            OFFSET 1.1221 -3.69964 12.103
          }
        }
      }
    }
  }
}
MOTION
Frames:	4
Frame Time:	0.03333
21.8603 77.8197 27.5221 -25.447409 83.825861 -17.896712 -1.924484 -3.990421 -0.213997 -0.690235 -10.639106 4.057815 3.265852 -0.54916 20.220305 -6.377239 3.286162 -48.008255 -35.70963 9.195753 -28.035876 17.691008 -7.514686 -45.759425 -2.022569 -1.479177 2.217909 -79.656802 75.09022 95.468491 40.038325 -85.99369 68.212265 -8.543779 -1.67547 -2.010328 -10.268604 4.109254 12.605545 -19.426467 30.161635 0.869265 -95.204901 16.446735 100.350787 -48.598902 -78.75462 -138.940579 -146.314336 47.416577 108.539924 7.510483 -23.327166 38.926052 0.692096 4.541656 -2.330589 4.234364 28.617423 4.706312 20.797753 65.63465 0.956383 -156.827975 -50.474052 -123.378994 158.650758 -0.366389 -166.955792 156.400409 0.713063 178.030741 12.536758 13.468476 -129.663719 5.066929 -11.775405 5.864131 6.286986 1.662178 2.58406 50.610291 33.23942 -57.788163 178.547628 -38.107436 -115.010466 4.102103 15.36214 -1.055289 146.011396 -67.562004 -167.907406 98.952361 35.575009 -112.266068 -4.732533 -1.979459 -16.939517 -179.819824 46.741495 148.443094 -5.949294 -44.551023 -1.681614 94.13618 -31.261787 79.04497 -38.2429 -1.026926 -31.404117 57.996913 -19.348626 109.251981 69.766204 7.45357 65.012492 87.232611 41.841562 -175.39236 2.160257 2.980633 -2.888511 8.681959 -23.096943 3.587644 -25.331593 43.449801 -30.191574 2.190089 -82.872109 86.861205
22.0265 77.5816 30.782700000000002 -29.734743 84.006634 -21.833539 -1.317837 -5.09807 -6.152783 0.582044 -9.500084 9.861841 10.550649 10.145514 110.845968 -4.467967 16.95781 -137.331575 -38.76116 10.278588 -28.6834 21.489632 -8.799922 -44.143321 6.313164 -62.395849 -6.158761 14.407943 0.636974 5.74639 -48.502939 72.453695 76.799923 -3.447815 -17.294187 -3.812406 -170.651722 -8.381071 76.90901 25.633256 -40.338225 44.224201 -94.499215 12.803014 103.123928 -39.384722 -74.243547 -132.095475 -58.393037 44.832002 31.164783 -13.761968 29.20095 46.422584 2.385142 5.467374 -1.386884 -150.456849 -76.765288 -171.630664 22.968728 55.951529 0.384256 175.088216 44.127141 -166.982943 146.736767 49.264841 -150.382376 -6.534782 15.786727 4.801107 10.761395 66.303291 144.90458 179.710086 -15.175029 -140.131683 96.052126 41.85957 -52.777607 128.254534 -25.109792 -61.584131 107.913469 33.306946 -83.355447 -36.741018 -36.815748 1.772107 35.227846 71.679182 -40.037587 -173.558495 13.940097 -161.533425 -14.674434 -44.930975 -9.80437 -151.971997 58.814127 150.00178 125.617029 41.557496 179.993808 132.562065 -69.672681 144.926612 -5.857238 -11.637699 -0.0 15.016928 -35.452789 -180.0 8.893957 -69.810358 -18.182814 -173.978009 14.405144 159.102943 1.413907 0.898836 -1.840526 9.214401 -22.004677 -59.658077 -48.635737 3.51368 28.333329 -8.580372 -64.599394 68.822145
22.1818 77.271 33.7067 -30.734621 83.83908 -22.883703 -1.873471 -5.693163 -0.26362 0.834329 -8.041764 3.2606 -7.981787 0.378724 -29.388535 5.343802 0.619496 5.672748 -43.725212 14.174894 -34.433806 29.890307 -11.973066 -42.89689 -52.339079 60.626611 51.293687 -167.650176 -2.298226 163.010911 -26.245395 -82.720804 -90.295984 -179.742878 -16.454581 142.969013 178.208666 -16.253919 75.207051 -101.199949 -9.364847 33.778854 29.158443 6.205055 10.481803 -150.46324 72.785111 79.110134 117.632563 -72.522729 103.524307 -169.789843 -7.898027 174.378289 -141.410183 -11.619486 -172.047063 11.372514 26.416274 -6.120233 2.642348 -2.932041 -6.716959 -167.37067 -19.569323 179.083394 154.429611 19.675347 -162.076772 -40.208877 89.371405 23.431435 62.548838 46.821602 151.827207 -20.376127 -65.852919 -2.424438 -3.618225 -6.242032 4.436617 -18.293499 4.167375 6.204231 1.419106 -0.255071 -2.997557 137.514711 30.066765 -101.459738 -9.670247 22.579154 9.090307 177.778988 21.290116 -126.089095 -14.437313 -44.270954 -11.549584 88.839975 -62.883505 93.08108 105.038917 -68.179564 113.298714 12.361673 50.801051 -6.538424 8.342262 -11.452192 11.933473 -2.450885 -32.075579 -7.641919 -21.722141 59.808618 -77.069353 11.96296 18.498075 96.432859 -176.289949 77.665232 -3.314574 -168.844827 55.584019 -9.114433 -19.342224 45.36415 -44.540656 165.768165 -20.395772 -92.949603
22.3991 76.923 36.3538 -35.500413 84.051778 -28.053902 -2.681996 -10.062779 -180.0 -1.746755 2.647812 -177.482411 6.099141 4.656138 82.486647 -8.918382 6.902041 -102.67728 -50.004272 19.72183 -40.884151 54.954576 -18.369163 -34.541103 -154.067262 19.467585 151.678665 8.801071 -63.167251 5.768848 122.976464 -85.993798 146.789913 -12.146394 6.350505 -3.506452 -91.126251 22.985353 52.763015 -133.46624 -50.175293 90.638618 18.534944 15.24393 18.389284 -71.272945 82.060834 9.952973 -10.963827 -4.624457 4.938048 -163.859904 -80.056227 140.743457 -70.999456 -67.827999 -91.944327 18.445852 -0.367248 -7.824252 -126.740486 -3.605745 -129.597754 41.409084 -12.258433 -35.351222 120.712717 -78.926497 143.256711 154.38771 -4.683011 -161.324077 7.832881 -63.754964 -115.436072 7.980879 -7.354745 8.783038 94.432217 42.159024 -54.118079 65.083465 -24.586864 -46.290821 42.058066 40.791773 -39.587525 -177.930349 -43.690982 -124.371538 -12.189825 -25.150765 14.974629 54.521614 36.409421 -49.978527 135.860358 15.392006 -153.601202 133.453709 29.467166 -150.490493 128.685823 41.406167 172.615859 36.650622 72.055742 -88.736692 -3.079515 -13.299152 -0.0 17.292027 -31.596958 -180.0 27.193576 -56.914007 117.161097 83.852998 -73.131451 -174.714252 -2.373439 -5.903357 2.794284 9.010373 -15.617952 -0.0 -20.648973 50.570056 -88.679447 -101.164866 70.038532 -168.6491
